<?xml version="1.0" encoding="UTF-8"?>
<svg id="Calque_1" data-name="Calque 1" xmlns="http://www.w3.org/2000/svg" xmlns:xlink="http://www.w3.org/1999/xlink" viewBox="0 0 400 400">
  <defs>
    <style>
      .cls-1 {
        fill: #07090d;
      }

      .cls-1, .cls-2, .cls-3, .cls-4, .cls-5, .cls-6, .cls-7, .cls-8 {
        stroke-width: 0px;
      }

      .cls-2 {
        fill: url(#Dégradé_sans_nom_22-4);
      }

      .cls-3 {
        fill: url(#Dégradé_sans_nom_22-2);
      }

      .cls-4 {
        fill: url(#Dégradé_sans_nom_22-5);
      }

      .cls-5 {
        fill: #fff;
      }

      .cls-6 {
        fill: url(#Dégradé_sans_nom_22-3);
      }

      .cls-7 {
        fill: url(#Dégradé_sans_nom_22-6);
      }

      .cls-8 {
        fill: url(#Dégradé_sans_nom_22);
      }
    </style>
    <linearGradient id="Dégradé_sans_nom_22" data-name="Dégradé sans nom 22" x1="42" y1="156.06" x2="175.3" y2="156.06" gradientUnits="userSpaceOnUse">
      <stop offset="0" stop-color="#12c2e9"/>
      <stop offset=".17" stop-color="#51a5ea"/>
      <stop offset=".4" stop-color="#a37fec"/>
      <stop offset=".5" stop-color="#c471ed"/>
      <stop offset=".65" stop-color="#d465bc"/>
      <stop offset=".89" stop-color="#ec5575"/>
      <stop offset="1" stop-color="#f64f59"/>
    </linearGradient>
    <linearGradient id="Dégradé_sans_nom_22-2" data-name="Dégradé sans nom 22" x1="185.53" y1="156.06" x2="358" y2="156.06" xlink:href="#Dégradé_sans_nom_22"/>
    <linearGradient id="Dégradé_sans_nom_22-3" data-name="Dégradé sans nom 22" x1="57" y1="284.42" x2="121.74" y2="284.42" xlink:href="#Dégradé_sans_nom_22"/>
    <linearGradient id="Dégradé_sans_nom_22-4" data-name="Dégradé sans nom 22" x1="148.89" y1="284.33" x2="167.71" y2="284.33" xlink:href="#Dégradé_sans_nom_22"/>
    <linearGradient id="Dégradé_sans_nom_22-5" data-name="Dégradé sans nom 22" x1="199.75" y1="284.42" x2="256.22" y2="284.42" xlink:href="#Dégradé_sans_nom_22"/>
    <linearGradient id="Dégradé_sans_nom_22-6" data-name="Dégradé sans nom 22" x1="288.26" y1="284.38" x2="353" y2="284.38" xlink:href="#Dégradé_sans_nom_22"/>
  </defs>
  <rect id="Fond" class="cls-1" width="400" height="400"/>
  <g id="Logo">
    <g>
      <path class="cls-8" d="m109.45,144.95c27.41,1.39,65.92,3.29,65.85,27.92,0,28.06-32.16,34.71-66.65,34.71-34.42-.07-63-4.24-66.65-34.71h40.12c4.39,7.6,14.54,9.58,26.53,9.58s26.53-1.97,26.53-9.58c0-4.31-11.91-4.97-27.33-5.7-27.41-1.39-65.92-3.29-65.85-27.84,0-28.06,32.16-34.79,66.65-34.79,34.42.22,63,4.09,66.65,34.79h-40.12c-4.39-7.75-14.54-9.57-26.53-9.57s-26.53,1.75-26.53,9.57c0,4.31,11.91,4.9,27.33,5.63Z"/>
      <path class="cls-3" d="m185.53,106.95h47.94l38.29,49.11,38.37-49.11h47.87v98.22h-38.29v-52.4l-38.37,52.4h-19.15l-38.37-52.4v52.4h-38.29v-98.22Z"/>
    </g>
    <g>
      <path class="cls-5" d="m109.45,122.85c27.41,1.39,65.92,3.29,65.85,27.92,0,28.06-32.16,34.71-66.65,34.71-34.42-.07-63-4.24-66.65-34.71h40.12c4.39,7.6,14.54,9.58,26.53,9.58s26.53-1.97,26.53-9.58c0-4.31-11.91-4.97-27.33-5.7-27.41-1.39-65.92-3.29-65.85-27.84,0-28.06,32.16-34.79,66.65-34.79,34.42.22,63,4.09,66.65,34.79h-40.12c-4.39-7.75-14.54-9.57-26.53-9.57s-26.53,1.75-26.53,9.57c0,4.31,11.91,4.9,27.33,5.63Z"/>
      <path class="cls-5" d="m185.53,84.85h47.94l38.29,49.11,38.37-49.11h47.87v98.22h-38.29v-52.4l-38.37,52.4h-19.15l-38.37-52.4v52.4h-38.29v-98.22Z"/>
    </g>
    <g>
      <path class="cls-6" d="m103.5,254.34c9.95-.13,18.38,10.3,18.24,22.74.14,12.4-8.29,22.92-18.24,22.74h-27.68v14.68h-18.81v-60.16h46.5Zm-4.7,27.84c1.11,0,2.08-.49,2.87-1.48s1.22-2.24,1.22-3.63-.39-2.64-1.22-3.63c-.79-1.03-1.76-1.52-2.87-1.52h-22.98v10.25h22.98Z"/>
      <path class="cls-2" d="m167.71,254.25v60.16h-18.81v-60.16h18.81Z"/>
      <path class="cls-4" d="m199.75,254.34h56.48v15.4h-37.66v7.7h37.66v13.92h-37.66v7.7h37.66v15.44h-56.48v-60.16Z"/>
      <path class="cls-7" d="m334.76,254.29c9.95-.13,18.38,10.3,18.24,22.74,0,4.52-.97,8.64-2.91,12.31-1.9,3.63-4.45,6.4-7.61,8.24l10.52,16.88h-20.03l-9.08-14.68h-16.8v14.68h-18.81v-60.16h46.5Zm-27.68,17.59v10.25h22.94c1.15,0,2.12-.49,2.91-1.48s1.22-2.24,1.22-3.63c0-2.86-1.83-5.15-4.13-5.15h-22.94Z"/>
    </g>
    <g>
      <path class="cls-5" d="m103.5,269.31c9.95-.11,18.38,8.26,18.24,18.24.14,9.95-8.29,18.38-18.24,18.24h-27.68v11.78h-18.81v-48.25h46.5Zm-4.7,22.33c1.11,0,2.08-.39,2.87-1.18s1.22-1.8,1.22-2.91-.39-2.12-1.22-2.91c-.79-.83-1.76-1.22-2.87-1.22h-22.98v8.22h22.98Z"/>
      <path class="cls-5" d="m167.71,269.23v48.25h-18.81v-48.25h18.81Z"/>
      <path class="cls-5" d="m199.75,269.31h56.48v12.35h-37.66v6.18h37.66v11.17h-37.66v6.18h37.66v12.39h-56.48v-48.25Z"/>
      <path class="cls-5" d="m334.76,269.27c9.95-.11,18.38,8.26,18.24,18.24,0,3.63-.97,6.93-2.91,9.87-1.9,2.91-4.45,5.13-7.61,6.61l10.52,13.54h-20.03l-9.08-11.78h-16.8v11.78h-18.81v-48.25h46.5Zm-27.68,14.11v8.22h22.94c1.15,0,2.12-.39,2.91-1.18s1.22-1.8,1.22-2.91c0-2.3-1.83-4.13-4.13-4.13h-22.94Z"/>
    </g>
  </g>
</svg>